<svg xmlns="http://www.w3.org/2000/svg" viewBox="0 0 24 24" fill="currentColor">
  <path d="M21 3H3C2.46 3 1.96 3.21 1.58 3.58C1.21 3.96 1 4.46 1 5V19C1 19.53 1.21 20.03 1.58 20.41C1.96 20.78 2.46 21 3 21H21C21.53 21 22.03 20.78 22.41 20.41C22.78 20.03 23 19.53 23 19V5C23 4.46 22.78 3.96 22.41 3.58C22.03 3.21 21.53 3 21 3ZM6 11H8C8.26 11 8.51 11.10 8.70 11.29C8.89 11.48 9 11.73 9 12C9 12.26 8.89 12.51 8.70 12.70C8.51 12.89 8.26 13 8 13H6C5.73 13 5.48 12.89 5.29 12.70C5.10 12.51 5 12.26 5 12C5 11.73 5.10 11.48 5.29 11.29C5.48 11.10 5.73 11 6 11ZM12 11H18C18.26 11 18.51 11.10 18.70 11.29C18.89 11.48 19 11.73 19 12C19 12.26 18.89 12.51 18.70 12.70C18.51 12.89 18.26 13 18 13H12C11.73 13 11.48 12.89 11.29 12.70C11.10 12.51 11 12.26 11 12C11 11.73 11.10 11.48 11.29 11.29C11.48 11.10 11.73 11 12 11ZM16 15H18C18.26 15 18.51 15.10 18.70 15.29C18.89 15.48 19 15.73 19 16C19 16.26 18.89 16.51 18.70 16.70C18.51 16.89 18.26 17 18 17H16C15.73 17 15.48 16.89 15.29 16.70C15.10 16.51 15 16.26 15 16C15 15.73 15.10 15.48 15.29 15.29C15.48 15.10 15.73 15 16 15ZM6 15H12C12.26 15 12.51 15.10 12.70 15.29C12.89 15.48 13 15.73 13 16C13 16.26 12.89 16.51 12.70 16.70C12.51 16.89 12.26 17 12 17H6C5.73 17 5.48 16.89 5.29 16.70C5.10 16.51 5 16.26 5 16C5 15.73 5.10 15.48 5.29 15.29C5.48 15.10 5.73 15 6 15Z"/>
</svg>
