<svg xmlns="http://www.w3.org/2000/svg" viewBox="0 0 24 24" fill="currentColor">
  <path d="M21.2 3.01L21 3H3l-.21.01c-.49.05-.95.28-1.28.64-.33.37-.52.85-.51 1.35v14l.01.2c.04.46.25.88.57 1.21.33.32.75.53 1.21.58L3 21h18l.2-.02c.46-.04.88-.25 1.21-.57.32-.33.53-.75.58-1.21l.01-.14V5c0-.5-.19-.98-.52-1.35-.33-.36-.79-.59-1.28-.64zM3 19V5h18v14H3zm5-8H6c-.27 0-.52.1-.71.29a1 1 0 000 1.42c.19.19.44.29.71.29h2c.26 0 .51-.11.7-.29a1 1 0 000-1.42A.97.97 0 008 11zm10 0h-6c-.27 0-.52.1-.71.29a1 1 0 000 1.42c.19.19.44.29.71.29h6c.26 0 .51-.11.7-.29a1 1 0 000-1.42c-.19-.19-.44-.29-.7-.29zm0 4h-2c-.27 0-.52.1-.71.29a1 1 0 000 1.42c.19.19.44.29.71.29h2c.26 0 .51-.11.7-.29a1 1 0 000-1.42c-.19-.19-.44-.29-.7-.29zm-6 0H6c-.27 0-.52.1-.71.29a1 1 0 000 1.42c.19.19.44.29.71.29h6c.26 0 .51-.11.7-.29a1 1 0 000-1.42c-.19-.19-.44-.29-.7-.29z"/>
</svg>
